<mxfile host="app.diagrams.net" modified="2024-02-08T17:01:32.209Z" agent="Mozilla/5.0 (Macintosh; Intel Mac OS X 10_15_7) AppleWebKit/537.36 (KHTML, like Gecko) Chrome/121.0.0.0 Safari/537.36" etag="TwbS5xJ4j0o4Cpql8EkI" version="23.1.1" type="github">
  <diagram id="C5RBs43oDa-KdzZeNtuy" name="Page-1">
    <mxGraphModel dx="580" dy="275" grid="1" gridSize="10" guides="1" tooltips="1" connect="1" arrows="1" fold="1" page="1" pageScale="1" pageWidth="827" pageHeight="1169" math="0" shadow="0">
      <root>
        <mxCell id="WIyWlLk6GJQsqaUBKTNV-0" />
        <mxCell id="WIyWlLk6GJQsqaUBKTNV-1" parent="WIyWlLk6GJQsqaUBKTNV-0" />
        <mxCell id="dghB8qf93IbIG2T5EWke-1" style="edgeStyle=none;curved=1;rounded=0;orthogonalLoop=1;jettySize=auto;html=1;exitX=0.5;exitY=1;exitDx=0;exitDy=0;fontSize=12;startSize=8;endSize=8;" edge="1" parent="WIyWlLk6GJQsqaUBKTNV-1" source="dghB8qf93IbIG2T5EWke-0" target="dghB8qf93IbIG2T5EWke-2">
          <mxGeometry relative="1" as="geometry">
            <mxPoint x="435" y="200" as="targetPoint" />
          </mxGeometry>
        </mxCell>
        <mxCell id="dghB8qf93IbIG2T5EWke-0" value="Start&amp;nbsp;" style="rounded=1;whiteSpace=wrap;html=1;fontSize=16;" vertex="1" parent="WIyWlLk6GJQsqaUBKTNV-1">
          <mxGeometry x="280" y="50" width="310" height="60" as="geometry" />
        </mxCell>
        <mxCell id="dghB8qf93IbIG2T5EWke-3" style="edgeStyle=none;curved=1;rounded=0;orthogonalLoop=1;jettySize=auto;html=1;exitX=0.5;exitY=1;exitDx=0;exitDy=0;fontSize=12;startSize=8;endSize=8;" edge="1" parent="WIyWlLk6GJQsqaUBKTNV-1" source="dghB8qf93IbIG2T5EWke-2" target="dghB8qf93IbIG2T5EWke-4">
          <mxGeometry relative="1" as="geometry">
            <mxPoint x="438" y="390" as="targetPoint" />
          </mxGeometry>
        </mxCell>
        <mxCell id="dghB8qf93IbIG2T5EWke-2" value="give welcome messege" style="rounded=0;whiteSpace=wrap;html=1;fontSize=16;" vertex="1" parent="WIyWlLk6GJQsqaUBKTNV-1">
          <mxGeometry x="330" y="200" width="215" height="60" as="geometry" />
        </mxCell>
        <mxCell id="dghB8qf93IbIG2T5EWke-7" style="edgeStyle=none;curved=1;rounded=0;orthogonalLoop=1;jettySize=auto;html=1;exitX=0.5;exitY=1;exitDx=0;exitDy=0;fontSize=12;startSize=8;endSize=8;" edge="1" parent="WIyWlLk6GJQsqaUBKTNV-1" source="dghB8qf93IbIG2T5EWke-4">
          <mxGeometry relative="1" as="geometry">
            <mxPoint x="438" y="500" as="targetPoint" />
          </mxGeometry>
        </mxCell>
        <mxCell id="dghB8qf93IbIG2T5EWke-4" value="ask the name of the contender&amp;nbsp;" style="rounded=0;whiteSpace=wrap;html=1;fontSize=16;" vertex="1" parent="WIyWlLk6GJQsqaUBKTNV-1">
          <mxGeometry x="325" y="360" width="225" height="60" as="geometry" />
        </mxCell>
        <mxCell id="dghB8qf93IbIG2T5EWke-12" style="edgeStyle=none;curved=1;rounded=0;orthogonalLoop=1;jettySize=auto;html=1;exitX=0.5;exitY=1;exitDx=0;exitDy=0;fontSize=12;startSize=8;endSize=8;" edge="1" parent="WIyWlLk6GJQsqaUBKTNV-1" source="dghB8qf93IbIG2T5EWke-10" target="dghB8qf93IbIG2T5EWke-13">
          <mxGeometry relative="1" as="geometry">
            <mxPoint x="438" y="690" as="targetPoint" />
          </mxGeometry>
        </mxCell>
        <mxCell id="dghB8qf93IbIG2T5EWke-10" value="ask their bidding amount" style="rounded=0;whiteSpace=wrap;html=1;fontSize=16;" vertex="1" parent="WIyWlLk6GJQsqaUBKTNV-1">
          <mxGeometry x="377.5" y="500" width="120" height="60" as="geometry" />
        </mxCell>
        <mxCell id="dghB8qf93IbIG2T5EWke-14" style="edgeStyle=none;curved=1;rounded=0;orthogonalLoop=1;jettySize=auto;html=1;exitX=0.5;exitY=1;exitDx=0;exitDy=0;fontSize=12;startSize=8;endSize=8;" edge="1" parent="WIyWlLk6GJQsqaUBKTNV-1" source="dghB8qf93IbIG2T5EWke-13">
          <mxGeometry relative="1" as="geometry">
            <mxPoint x="435.5357142857142" y="840" as="targetPoint" />
          </mxGeometry>
        </mxCell>
        <mxCell id="dghB8qf93IbIG2T5EWke-13" value="add name and bid into a dictionary" style="rounded=0;whiteSpace=wrap;html=1;fontSize=16;" vertex="1" parent="WIyWlLk6GJQsqaUBKTNV-1">
          <mxGeometry x="288.5" y="670" width="298" height="60" as="geometry" />
        </mxCell>
        <mxCell id="dghB8qf93IbIG2T5EWke-24" style="edgeStyle=none;curved=1;rounded=0;orthogonalLoop=1;jettySize=auto;html=1;exitX=0;exitY=0.5;exitDx=0;exitDy=0;fontSize=12;startSize=8;endSize=8;" edge="1" parent="WIyWlLk6GJQsqaUBKTNV-1" source="dghB8qf93IbIG2T5EWke-16">
          <mxGeometry relative="1" as="geometry">
            <mxPoint x="440" y="1010" as="targetPoint" />
          </mxGeometry>
        </mxCell>
        <mxCell id="dghB8qf93IbIG2T5EWke-16" value="Ask to see if there is anyone else bidding&amp;nbsp;" style="rhombus;whiteSpace=wrap;html=1;fontSize=16;" vertex="1" parent="WIyWlLk6GJQsqaUBKTNV-1">
          <mxGeometry x="271.25" y="840" width="328.75" height="80" as="geometry" />
        </mxCell>
        <mxCell id="dghB8qf93IbIG2T5EWke-21" value="" style="endArrow=none;html=1;rounded=0;fontSize=12;startSize=8;endSize=8;curved=1;entryX=1;entryY=0.5;entryDx=0;entryDy=0;" edge="1" parent="WIyWlLk6GJQsqaUBKTNV-1" target="dghB8qf93IbIG2T5EWke-4">
          <mxGeometry width="50" height="50" relative="1" as="geometry">
            <mxPoint x="600" y="880" as="sourcePoint" />
            <mxPoint x="760" y="720" as="targetPoint" />
            <Array as="points">
              <mxPoint x="780" y="890" />
            </Array>
          </mxGeometry>
        </mxCell>
        <mxCell id="dghB8qf93IbIG2T5EWke-22" value="yes" style="text;html=1;align=center;verticalAlign=middle;resizable=0;points=[];autosize=1;strokeColor=none;fillColor=none;fontSize=16;" vertex="1" parent="WIyWlLk6GJQsqaUBKTNV-1">
          <mxGeometry x="605" y="828" width="50" height="30" as="geometry" />
        </mxCell>
        <mxCell id="dghB8qf93IbIG2T5EWke-23" value="no" style="text;html=1;align=center;verticalAlign=middle;resizable=0;points=[];autosize=1;strokeColor=none;fillColor=none;fontSize=16;" vertex="1" parent="WIyWlLk6GJQsqaUBKTNV-1">
          <mxGeometry x="210" y="848" width="40" height="30" as="geometry" />
        </mxCell>
        <mxCell id="dghB8qf93IbIG2T5EWke-25" value="Clear the screen" style="rounded=1;whiteSpace=wrap;html=1;fontSize=16;" vertex="1" parent="WIyWlLk6GJQsqaUBKTNV-1">
          <mxGeometry x="620" y="670" width="120" height="60" as="geometry" />
        </mxCell>
        <mxCell id="dghB8qf93IbIG2T5EWke-28" value="" style="edgeStyle=none;curved=1;rounded=0;orthogonalLoop=1;jettySize=auto;html=1;fontSize=12;startSize=8;endSize=8;" edge="1" parent="WIyWlLk6GJQsqaUBKTNV-1" source="dghB8qf93IbIG2T5EWke-26" target="dghB8qf93IbIG2T5EWke-27">
          <mxGeometry relative="1" as="geometry" />
        </mxCell>
        <mxCell id="dghB8qf93IbIG2T5EWke-26" value="Find the highest bidder&amp;nbsp;" style="rounded=1;whiteSpace=wrap;html=1;fontSize=16;" vertex="1" parent="WIyWlLk6GJQsqaUBKTNV-1">
          <mxGeometry x="390" y="1010" width="120" height="60" as="geometry" />
        </mxCell>
        <mxCell id="dghB8qf93IbIG2T5EWke-27" value="Declare the winner" style="whiteSpace=wrap;html=1;fontSize=16;rounded=1;" vertex="1" parent="WIyWlLk6GJQsqaUBKTNV-1">
          <mxGeometry x="390" y="1190" width="120" height="60" as="geometry" />
        </mxCell>
      </root>
    </mxGraphModel>
  </diagram>
</mxfile>
